PathFileType	4	(X/Y/Z)	F:\MotionCapture\20160217\3\Generated_files\EMG_test05-Dynamic.trc
DataRate	CameraRate	NumFrames	NumMarkers	Units	OrigDataRate	OrigDataStartFrame	OrigNumFrames
120.00	120.00	       9	39	mm	120.00	90	       714
Frame#	Time	Top.Head			Front.Head			Rear.Head			R.Shoulder			R.Offset			R.Elbow			R.Wrist			L.Shoulder			L.Elbow			L.Wrist			R.ASIS			L.ASIS			V.Sacral			R.Thigh			R.Knee			R.Shank			R.Ankle			R.Heel			R.Toe			L.Thigh			L.Knee			L.Shank			L.Ankle			L.Heel			L.Toe			R1			R2			R3			R4			R5			R6			R7			L1			L2			L3			L4			L5			L6			L7			V_Mid_ASIS			V_Pelvis_Origin			V_R.Hip_JC			V_L.Hip_JC			V_R.Knee_JC			V_L.Knee_JC			V_R.Ankle_JC			V_L.Ankle_JC			V_Mid_Hip			V_Mid_Shoulder			V_R.Hand			V_L.Hand			V_R.Toe_Offset_Static			V_L.Toe_Offset_Static			V_R.Toe_Offset			V_L.Toe_Offset			
		X1	Y1	Z1	X2	Y2	Z2	X3	Y3	Z3	X4	Y4	Z4	X5	Y5	Z5	X6	Y6	Z6	X7	Y7	Z7	X8	Y8	Z8	X9	Y9	Z9	X10	Y10	Z10	X11	Y11	Z11	X12	Y12	Z12	X13	Y13	Z13	X14	Y14	Z14	X15	Y15	Z15	X16	Y16	Z16	X17	Y17	Z17	X18	Y18	Z18	X19	Y19	Z19	X20	Y20	Z20	X21	Y21	Z21	X22	Y22	Z22	X23	Y23	Z23	X24	Y24	Z24	X25	Y25	Z25	X26	Y26	Z26	X27	Y27	Z27	X28	Y28	Z28	X29	Y29	Z29	X30	Y30	Z30	X31	Y31	Z31	X32	Y32	Z32	X33	Y33	Z33	X34	Y34	Z34	X35	Y35	Z35	X36	Y36	Z36	X37	Y37	Z37	X38	Y38	Z38	X39	Y39	Z39	

90	0.742																																																																																																																																																																						-3035.04932	149.00859	1624.10217	-3008.28882	238.78560	647.59320	-3326.85522	63.42690	32.77951	-3176.20142	353.38879	1385.89600	-3154.97705	149.10492	1696.76526	-3018.24829	-95.54553	889.53198	-3371.04614	80.55840	45.08805	-3180.37549	-57.55639	1389.97607	-3405.20508	107.15273	213.86699	-3025.07764	301.84213	474.75180	-2851.66895	278.61893	75.15321	-3375.09155	50.29484	32.12009	-3229.38770	47.86801	521.53772	-2981.23096	225.47543	342.15729	-2808.62402	256.33054	86.14205	-2987.51904	288.53250	66.66762	-3047.33008	233.69873	36.46365	-2943.32104	301.01053	44.14397	-3176.20410	-11.92792	900.10883	-3136.14600	274.02576	915.14349	-3423.23267	7.87047	29.49853	-2989.36572	-78.89706	153.73459	-3325.72363	21.80968	437.06891	-3348.24243	496.77377	853.20380	-2930.95898	202.27789	69.63216	-2840.93213	242.96854	81.79398	-2884.05737	306.46973	61.22549	-3549.23877	615.89246	368.00876	-3528.73267	103.71063	18.79983	-2910.22339	332.64432	-50.24566	-3009.26221	202.29390	43.98086	-3020.92505	273.50208	37.86602	-3395.97656	113.93339	-51.28083	-3321.84473	454.40051	1108.03589	-3100.04663	325.74548	169.92825	
91	0.750																																																																																																																																																																						-3326.81006	63.49155	32.66783	-3007.89941	-95.03373	891.01044	-3148.66333	148.93617	1695.79712	-3371.15430	80.47726	45.05366	-3402.78442	106.55675	214.22403	-3017.50854	301.51663	473.54578	-2848.73096	276.85767	71.21376	-3344.91162	498.93591	854.62134	-3375.01392	50.42822	32.03465	-3222.76611	46.36621	520.67792	-3127.82251	274.69864	914.59656	-2807.20752	251.62408	82.30623	-3169.01782	354.46890	1385.53796	-2985.77612	288.14954	65.24637	-3046.41968	233.19101	34.52457	-2941.92285	299.37823	41.79617	-3423.32007	7.43506	29.29255	-2986.67969	-80.45242	154.39162	-2930.02539	200.03336	66.91315	-2839.28394	240.37254	77.60273	-2882.03320	304.64764	57.77333	-3000.58984	238.83424	646.82526	-3549.04419	614.07910	367.38437	-3528.58252	103.25384	20.94457	-2910.04956	331.91861	-51.37238	-3008.69409	201.19586	42.14174	-3019.85181	272.95358	36.96574	-3395.77051	113.62648	-51.40980	-2975.99805	224.03477	340.52167	-3027.36304	150.23438	1623.14575	-3194.47559	-162.10507	1061.82166	-3455.17358	134.58301	52.81592	-3173.12964	-55.52522	1388.96057	-3316.01294	454.20181	1108.54749	-3100.29224	326.43213	171.19864	
92	0.758																																																																																																																																																																						-3165.30762	-54.98045	1388.48547	-3220.82300	44.71257	519.53381	-3326.73926	63.46544	32.59006	-2971.00146	223.35512	337.84006	-3161.79932	-11.89114	897.48572	-2996.91187	-93.95046	892.05469	-3143.53955	150.11659	1695.04724	-3371.28320	80.25499	45.06319	-2985.01563	287.41766	63.89994	-3400.74341	105.89105	214.61397	-3010.02222	299.85092	472.03833	-2848.04663	274.52368	66.10291	-3341.19678	501.72949	855.93707	-3375.15576	50.24270	32.08156	-3120.23633	274.40262	913.87463	-3020.95459	150.58276	1623.48169	-2806.35693	247.22865	77.27585	-3162.78833	355.00000	1385.18213	-3046.85278	232.76335	33.66270	-2940.79980	297.54172	39.23738	-3200.94775	-156.13647	1058.93054	-3423.09033	7.17189	29.06490	-2981.98926	-82.82601	155.93979	-3325.14746	18.84944	434.41492	-2930.11133	198.29227	63.89072	-2838.61572	237.33311	72.77158	-2881.00073	302.28995	54.03654	-2992.61328	237.41896	645.48639	-3549.30786	612.10339	366.36984	-3530.11890	99.66246	26.77643	-3009.41309	201.17712	40.73489	-3020.19287	272.72171	36.29944	-3395.14771	113.05721	-51.65372	-3455.01270	133.48842	54.19530	-3100.89014	326.11301	171.75851	
93	0.767																																																																																																																																																																						-3154.60938	-54.24303	1388.64661	-3326.65747	63.49794	32.51419	-2987.41943	-94.02702	893.76410	-3137.00244	151.08318	1694.36279	-3368.47095	84.20016	43.01801	-2985.08179	286.68549	62.21352	-3398.25464	104.81069	215.23405	-3002.86572	299.69623	470.65137	-2847.94116	272.15680	61.41804	-3336.45947	503.70776	856.82373	-3375.21509	49.94853	32.02425	-2984.66846	237.95413	645.18719	-3111.43018	275.30093	913.26105	-3014.49658	151.73993	1623.50305	-2806.64160	245.06798	71.70438	-3155.17334	354.56747	1384.87219	-3213.88062	44.40076	519.12323	-3048.41895	233.05814	34.05128	-2967.03955	221.25299	337.04327	-2941.22729	296.95932	37.54607	-3422.95947	6.75593	28.78747	-3511.99902	52.78109	71.39425	-2931.10962	196.53409	61.28880	-2838.62183	234.91628	66.95200	-2880.91895	301.51010	50.17092	-3529.33643	98.80482	28.73352	-3304.16797	456.52664	1109.65906	-3010.48096	201.05859	39.32069	-3021.11426	272.41348	36.08658	-3394.36328	112.46761	-51.65348	-3548.46313	624.43231	375.30612	-3153.84448	-11.37189	896.61969	-3454.74219	132.23080	56.00868	-3101.53149	325.02655	172.61249	
94	0.775																																																																																																																																																																						-3149.80884	-53.13299	1388.67432	-3130.59912	151.40489	1694.61975	-3326.48413	63.60486	32.38149	-3009.55981	152.49805	1624.97949	-3331.10889	505.84906	857.80035	-2977.46826	-93.99264	894.97223	-3368.41968	84.02884	42.98913	-2985.13013	286.60223	61.70874	-3395.57007	103.68596	216.22089	-2994.33984	299.48596	470.41553	-2847.91382	271.21112	57.04871	-3375.14526	49.73006	31.90347	-2977.33691	237.29416	645.38354	-3103.03784	275.30264	912.54413	-2806.47021	243.80263	66.46761	-3147.94653	356.41446	1384.92542	-3048.57910	232.63422	33.68722	-2961.80859	221.65205	334.33466	-2942.07227	297.05734	36.38262	-3208.33276	42.88316	518.85358	-3422.13354	9.48424	28.79549	-3146.04761	-9.61742	895.90900	-3169.13184	-159.07991	1060.31714	-2931.57227	195.87732	59.04671	-2838.52539	233.80750	62.25749	-2881.34521	300.33200	47.40219	-3309.84229	21.72787	435.84921	-3528.81616	97.61597	31.61800	-3297.73901	458.24521	1110.21582	-3011.43970	200.21902	39.84066	-3021.49609	272.06839	36.15931	-3393.53711	111.99717	-51.30526	-3454.49927	131.12163	57.32832	-3102.57422	325.11273	174.97057	
95	0.783																																																																																																																																																																						-3124.90625	153.04272	1694.86816	-3326.38745	63.83034	32.36798	-3325.09155	508.60245	858.66290	-2968.01367	-94.42141	896.23999	-2969.11890	236.94522	645.48859	-3368.38403	83.95852	42.99067	-2984.73877	286.57870	61.54984	-2986.13623	298.83801	470.22385	-2847.10034	271.23343	54.85963	-3138.01245	-7.79369	894.85999	-3375.01709	49.43520	31.88638	-3141.19897	-52.17808	1389.00647	-2805.78052	244.19376	63.33956	-3141.57739	357.96063	1384.57935	-3001.77563	154.01036	1624.74438	-3047.99023	232.48172	34.17313	-2956.47070	220.49358	333.80298	-2941.61694	296.74478	34.49023	-3421.94775	9.32271	28.75786	-3201.76685	42.78120	518.12292	-2931.00269	195.98096	57.73240	-2837.58130	234.05756	59.44704	-2880.70728	300.02921	44.69700	-3393.14673	100.11124	216.69525	-3527.79395	97.17073	34.66063	-3010.93359	200.17093	39.56928	-3021.19604	271.92404	36.53403	-3392.62402	111.57920	-50.77571	-3094.52344	275.76572	912.84119	-3102.08643	324.29697	176.10744	
96	0.792																																																																																																																																																																						-3137.07153	-50.60734	1387.92053	-3118.02637	154.06487	1695.71252	-3326.30176	63.88142	32.25672	-3195.03101	42.44035	518.01703	-3318.80176	510.73303	859.71094	-2958.59375	-93.24538	897.22717	-2961.26514	235.43329	645.71735	-3368.19604	83.73312	42.92274	-2982.84937	286.46246	61.30565	-3129.92310	-7.58688	895.18567	-2977.93530	297.36023	470.22778	-2845.75195	272.42905	53.12774	-3374.81543	49.34619	31.87107	-3152.75684	-157.89661	1061.16101	-3554.30225	68.56698	67.49089	-2803.94458	244.89778	61.10463	-3133.48975	357.77829	1385.09375	-2995.29541	154.58487	1625.95459	-3046.71704	232.85762	35.13278	-2951.10547	220.66562	333.59586	-2940.63281	296.81427	33.97960	-3484.25952	33.59385	34.20393	-3422.45654	7.70482	28.71843	-3283.50317	460.05807	1111.43567	-3299.16113	20.20947	437.20404	-2929.18726	196.56238	56.73540	-2835.76758	235.13081	57.79738	-2879.92236	301.04236	43.85410	-3526.30200	96.76618	38.04379	-3009.16919	200.68130	38.74471	-3019.88647	272.21509	36.68561	-3086.29541	277.31427	913.15454	
97	0.800																																																																																																																																																																						-3128.84790	-50.00691	1388.86743	-3111.42065	154.55719	1695.79114	-3326.22510	63.67233	32.21782	-3312.06250	512.61865	860.78241	-2949.66772	-93.39422	898.32275	-2952.77759	234.63844	646.04089	-3368.03760	83.44462	42.88668	-2980.81909	287.01810	61.26805	-3118.31885	-4.61209	895.47180	-2970.23901	298.55151	471.03879	-2843.99146	273.21881	51.58468	-3187.13159	43.08433	517.78491	-3374.97900	48.87014	31.80583	-3552.14844	66.73779	72.08353	-2945.37915	221.19150	333.64908	-2801.97217	246.20712	58.96962	-3126.71167	359.48416	1385.76868	-2988.73389	156.14793	1627.62610	-3045.11304	232.95422	36.11736	-2939.66479	296.74045	33.52001	-3483.41479	32.59432	36.10719	-3421.99805	7.58295	28.79154	-3275.88086	461.63910	1111.77100	-3144.89868	-157.45041	1061.43518	-2926.88745	197.15433	55.61731	-2833.73608	236.34753	56.37320	-2878.49121	302.68933	42.44192	-3452.09399	126.78967	64.19423	-3388.83032	739.81464	595.07257	-3524.64600	95.60432	41.92659	-3007.47925	201.04344	39.06452	-3018.22900	272.41245	36.86801	-3077.37378	278.35635	913.90381	
98	0.808																																																																																																																																																																						-3325.90479	63.75057	32.11341	-3105.32471	155.44315	1696.90942	-3303.80347	515.07654	861.46588	-2941.56812	-94.69654	899.98163	-3367.66650	83.19597	42.98925	-3108.61426	-2.79729	895.81702	-2963.14844	298.40369	471.06860	-2841.83691	274.78589	49.82846	-3370.28125	50.98250	29.22650	-3120.88818	-49.81638	1389.52588	-3550.41943	65.36349	76.36994	-2799.90747	247.70663	56.57631	-3119.92236	360.54395	1386.89612	-2981.62769	156.04694	1628.54285	-3043.41528	233.66930	36.87970	-2944.76392	233.75429	647.70447	-2938.07690	296.96793	32.00314	-2940.53955	220.85684	333.22577	-2924.73901	197.56328	54.35794	-2831.29834	238.01630	54.25108	-2877.30640	304.77539	41.66610	-3449.64746	127.05887	66.80174	-3522.21338	95.15971	45.78633	-2976.85229	282.71414	56.66653	-3005.90576	200.99995	39.54784	-3016.43311	272.89633	37.10037	-3179.53442	42.35696	518.46729	-3068.20068	279.12515	914.44562	-3285.91309	19.45966	439.86618	-3203.26782	156.40555	1611.06738	
